/* XPM */
static char *dummy[]={
"32 32 4 1",
". c None",
"b c #040404",
"# c #ff3300",
"a c #ffffff",
"................................",
"................................",
"................................",
"................................",
"................................",
"................................",
"................................",
"..............####..............",
".............######.............",
".............##aa##.............",
"............###aa###............",
"...........###aaaa###...........",
"..........###aaaaaa###..........",
"..........##aaaaabba##..........",
".........###bbbbabba###.........",
"........###ababbbaaaa###........",
".......###aabbbbbbaaaa###.......",
".......##aaabbbaabaaaaa##.......",
"......###aabbbababaaaaa###......",
".....###aaababaabaaabaaa###.....",
"....###aaaabaabaababbbaaa###....",
"....##aaaaabaaabaabbbbbaaa##....",
"...###aaaabaaabaabbbbbbbaa###...",
"..###aaaaabaabaabbbbbbbbbaa###..",
"..##aaaaaaaaaaaaaaaaaaaaaaaa##..",
"..############################..",
"...##########################...",
"................................",
"................................",
"................................",
"................................",
"................................"};
